<svg xmlns="http://www.w3.org/2000/svg" viewBox="0 0 512 512">
  <defs>
    <linearGradient id="bg" x1="0" y1="0" x2="1" y2="1">
      <stop offset="0" stop-color="#22c3e6"/>
      <stop offset="1" stop-color="#2563eb"/>
    </linearGradient>
    <radialGradient id="glow" cx=".25" cy=".15" r=".7">
      <stop offset="0" stop-color="#fff" stop-opacity=".35"/>
      <stop offset="1" stop-color="#fff" stop-opacity="0"/>
    </radialGradient>
  </defs>
  <rect width="512" height="512" fill="url(#bg)"/>
  <rect width="512" height="512" fill="url(#glow)"/>
  <rect x="112" y="128" width="288" height="256" rx="40" fill="#fff"/>
  <path d="M112 168a40 40 0 0 1 40-40h208a40 40 0 0 1 40 40v24H112z" fill="#cdeffa"/>
  <g fill="#e2f4fb">
    <rect x="140" y="214" width="66" height="44" rx="12"/><rect x="223" y="214" width="66" height="44" rx="12"/><rect x="306" y="214" width="66" height="44" rx="12"/>
    <rect x="140" y="274" width="66" height="44" rx="12"/><rect x="306" y="274" width="66" height="44" rx="12"/>
    <rect x="140" y="334" width="66" height="28" rx="10"/><rect x="223" y="334" width="66" height="28" rx="10"/><rect x="306" y="334" width="66" height="28" rx="10"/>
  </g>
  <rect x="223" y="274" width="66" height="44" rx="12" fill="#0891b2"/>
  <rect x="140" y="214" width="66" height="44" rx="12" fill="#f59e0b" opacity=".85"/>
  <rect x="306" y="334" width="66" height="28" rx="10" fill="#db2777" opacity=".75"/>
</svg>
